<?xml version="1.0" encoding="iso-8859-1"?>
<!-- Generator: Adobe Illustrator 19.0.0, SVG Export Plug-In . SVG Version: 6.00 Build 0)  -->
<svg version="1.1" id="Layer_1" xmlns="http://www.w3.org/2000/svg" xmlns:xlink="http://www.w3.org/1999/xlink" x="0px" y="0px"
	 viewBox="0 0 512 512" style="enable-background:new 0 0 512 512;" xml:space="preserve">
<circle style="fill:#273B7A;" cx="256" cy="256" r="256"/>
<path style="fill:#121149;" d="M292.776,509.359c110.08-15.839,197.513-101.704,215.716-211.003L363.649,153.514l-64.074,77.103
	l-0.478-0.476L146.235,362.868L292.776,509.359z"/>
<g>
	<path style="fill:#5FA265;" d="M141.319,347.034V177.878c0-9.831,7.978-17.813,17.813-17.813h169.151L141.319,347.034z"/>
	<path style="fill:#F4DA53;" d="M141.319,350.584v-3.55l186.966-186.97h3.55c9.837,0,17.818,7.982,17.818,17.813v3.555
		L162.682,368.399h-3.55C149.297,368.399,141.319,360.415,141.319,350.584z"/>
	<polygon style="fill:#6483C1;" points="162.682,368.399 245.486,285.599 328.285,368.399 	"/>
	<path style="fill:#FFFFFF;" d="M328.285,368.399l-84.068-84.068l21.368-21.363l84.068,84.068v3.55
		c0,9.831-7.982,17.813-17.818,17.813L328.285,368.399L328.285,368.399z"/>
	<polygon style="fill:#C1C0C0;" points="349.653,347.034 266.849,264.232 349.653,181.432 	"/>
</g>
<path style="fill:#EDEDED;" d="M178.478,183.096c10.6-4.853,23.861-2.874,32.471,5.067c-2.693,2.746-5.46,5.429-8.226,8.099
	c-8.609-8.545-24.786-4.491-28.82,6.811c-5.279,11.121,3.491,25.745,15.9,25.905c8.12,0.946,16.22-4.491,17.934-12.579
	c-5.673,0.01-11.335-0.043-16.996,0.043c-0.16-3.491-0.181-6.992-0.107-10.493c9.473,0.245,19.178-0.543,28.512,0.383
	c0.714,6.928,0.224,14.283-3.501,20.359c-5.842,10.876-19.635,15.624-31.311,12.878c-14.431-2.991-25.235-17.794-23.264-32.461
	C162.078,196.761,169.07,187.385,178.478,183.096z"/>
<path style="fill:#BE4C41;" d="M313.265,130.738h6.771c16.879,0.965,33.382,9.213,43.613,22.778
	c6.699,8.57,10.438,19.204,11.28,30.006v4.01c-0.395,20.939-13.793,38.129-25.395,54.415
	c-13.024,18.404-25.062,38.462-28.396,61.145c-0.893,3.843,0.176,9.223-4.415,10.957c-1.081-0.841-2.338-1.538-3.094-2.712
	c-1.36-12.683-4.529-25.209-9.94-36.788c-6.139-13.491-14.686-25.686-23.369-37.621c-5.287-7.156-10.273-14.562-14.396-22.456
	c-6.482-11.829-8.89-25.81-6.242-39.084c2.17-10.48,7.654-20.192,15.248-27.701C285.158,137.687,298.992,131.631,313.265,130.738z
	 M311.946,167.621c-8.008,1.786-14.727,8.869-15.403,17.158c-0.841,7.718,3.677,15.548,10.593,18.956
	c7.499,3.968,17.346,2.753,23.609-2.981c5.848-5.172,7.977-14.105,4.923-21.333C332.054,170.372,321.324,165.221,311.946,167.621z"
	/>
<path style="fill:#6F302C;" d="M311.946,167.621c9.38-2.4,20.108,2.753,23.723,11.798c3.053,7.228,0.924,16.162-4.923,21.333
	c-6.263,5.734-16.11,6.949-23.609,2.981c-6.918-3.406-11.435-11.238-10.593-18.956C297.217,176.49,303.937,169.406,311.946,167.621z
	"/>
<g>
</g>
<g>
</g>
<g>
</g>
<g>
</g>
<g>
</g>
<g>
</g>
<g>
</g>
<g>
</g>
<g>
</g>
<g>
</g>
<g>
</g>
<g>
</g>
<g>
</g>
<g>
</g>
<g>
</g>
</svg>
